<svg width="43" height="43" viewBox="0 0 43 43" fill="none" xmlns="http://www.w3.org/2000/svg">
<path d="M37.519 12.7204C37.49 12.4275 37.3872 12.1467 37.2201 11.9044C37.053 11.662 36.8272 11.466 36.5638 11.3347L22.6193 4.36249C22.3772 4.24131 22.1101 4.17822 21.8393 4.17822C21.5685 4.17822 21.3014 4.24131 21.0593 4.36249L7.11484 11.3347C6.85212 11.4668 6.62698 11.663 6.46031 11.9052C6.29363 12.1475 6.19082 12.4279 6.16139 12.7204C6.14222 12.9069 4.48631 31.4879 21.1325 38.8907C21.3549 38.9911 21.5962 39.043 21.8402 39.043C22.0842 39.043 22.3254 38.9911 22.5479 38.8907C39.194 31.4879 37.5381 12.9087 37.519 12.7204ZM21.8402 35.3749C10.0414 29.6717 9.48365 17.4999 9.57952 14.0016L21.8402 7.87126L34.0921 13.9981C34.1566 17.465 33.5204 29.717 21.8402 35.3749Z" fill="#EDF6FF"/>
<path d="M20.097 22.6314L16.1002 18.6345L13.6355 21.0992L20.097 27.5607L30.0446 17.6131L27.5799 15.1484L20.097 22.6314Z" fill="#EDF6FF"/>
</svg>
