<svg width="30" height="30" viewBox="0 0 30 30" fill="none" xmlns="http://www.w3.org/2000/svg">
<circle cx="15" cy="15" r="15" fill="#C4C4C4"/>
<path d="M17.73 16.31C18.5519 15.2096 18.9973 13.8735 19 12.5C19 11.2144 18.6188 9.95772 17.9046 8.8888C17.1903 7.81988 16.1752 6.98676 14.9874 6.49479C13.7997 6.00282 12.4928 5.87409 11.2319 6.1249C9.97104 6.3757 8.81285 6.99477 7.90381 7.90381C6.99477 8.81285 6.3757 9.97104 6.1249 11.2319C5.87409 12.4928 6.00282 13.7997 6.49479 14.9874C6.98676 16.1752 7.81988 17.1903 8.8888 17.9046C9.95772 18.6188 11.2144 19 12.5 19C13.93 19 15.24 18.52 16.31 17.73L22.59 24L24 22.59L17.73 16.31ZM12.5 17C10.01 17 8 14.99 8 12.5C8 10.01 10.01 8 12.5 8C14.99 8 17 10.01 17 12.5C17 14.99 14.99 17 12.5 17Z" fill="black"/>
<path d="M13.29 11.44L12.5 9L11.71 11.44H9.25L11.26 13.03L10.49 15.5L12.5 13.97L14.51 15.5L13.74 13.03L15.75 11.44H13.29Z" fill="black"/>
</svg>
