<svg width="60" height="24" viewBox="0 0 60 24" fill="none" xmlns="http://www.w3.org/2000/svg">
<path d="M18.202 18.1952C21.1695 18.1952 22.9323 15.8746 22.9323 11.9448C22.9323 10.4651 22.6493 9.21984 22.1075 8.25762C21.3232 6.76172 19.9728 5.95312 18.2667 5.95312C15.7277 5.95312 13.9326 7.65926 13.9326 10.0527C13.9326 12.3006 15.5498 13.9339 17.7734 13.9339C19.14 13.9339 20.2477 13.2952 20.7976 12.1874H20.8218C20.8218 12.1874 20.8542 12.1874 20.8623 12.1874C20.8784 12.1874 20.935 12.1874 20.935 12.1874C20.935 14.8557 19.9243 16.4487 18.2182 16.4487C17.2155 16.4487 16.4393 15.8988 16.1724 15.0175H14.0943C14.442 16.9338 16.0673 18.1952 18.202 18.1952ZM18.2748 12.2763C16.9325 12.2763 15.9784 11.3222 15.9784 9.98801C15.9784 8.68617 16.981 7.6916 18.2829 7.6916C19.5847 7.6916 20.5873 8.70234 20.5873 10.0204C20.5873 11.3222 19.6089 12.2763 18.2748 12.2763Z" fill="white"/>
<path d="M26.3449 18.082C27.113 18.082 27.6386 17.5322 27.6386 16.8045C27.6386 16.0686 27.113 15.5269 26.3449 15.5269C25.5848 15.5269 25.0511 16.0686 25.0511 16.8045C25.0511 17.5322 25.5848 18.082 26.3449 18.082ZM26.3449 12.0176C27.113 12.0176 27.6386 11.4758 27.6386 10.7481C27.6386 10.0123 27.113 9.47051 26.3449 9.47051C25.5848 9.47051 25.0511 10.0123 25.0511 10.7481C25.0511 11.4758 25.5848 12.0176 26.3449 12.0176Z" fill="white"/>
<path d="M35.2074 17.9122H37.2046V15.7371H38.7813V13.9744H37.2046V6.24422H34.2613C32.1994 9.34922 30.558 11.9448 29.5068 13.8773V15.7371H35.2074V17.9122ZM31.4393 13.9016C32.7978 11.5082 34.0106 9.5918 35.1265 7.94227H35.2397V14.0229H31.4393V13.9016Z" fill="white"/>
<path d="M43.2289 17.9122H45.3151V6.24422H43.237L40.1886 8.37891V10.3842L43.0915 8.34656H43.2289V17.9122Z" fill="white"/>
</svg>
