<svg width="19" height="13" viewBox="0 0 19 13" fill="none" xmlns="http://www.w3.org/2000/svg">
<path fill-rule="evenodd" clip-rule="evenodd" d="M17.872 0.504395H16.768C16.1583 0.504395 15.664 0.998672 15.664 1.60839V11.1764C15.664 11.7861 16.1583 12.2804 16.768 12.2804H17.872C18.4817 12.2804 18.976 11.7861 18.976 11.1764V1.60839C18.976 0.998672 18.4817 0.504395 17.872 0.504395ZM11.616 3.08042H12.72C13.3297 3.08042 13.824 3.5747 13.824 4.18442V11.1764C13.824 11.7861 13.3297 12.2804 12.72 12.2804H11.616C11.0063 12.2804 10.512 11.7861 10.512 11.1764V4.18442C10.512 3.5747 11.0063 3.08042 11.616 3.08042ZM7.568 5.65639H6.464C5.85428 5.65639 5.36 6.15067 5.36 6.76039V11.1764C5.36 11.7861 5.85428 12.2804 6.464 12.2804H7.568C8.17772 12.2804 8.672 11.7861 8.672 11.1764V6.76039C8.672 6.15067 8.17772 5.65639 7.568 5.65639ZM2.41601 7.86439H1.31201C0.702285 7.86439 0.208008 8.35867 0.208008 8.9684V11.1764C0.208008 11.7861 0.702285 12.2804 1.31201 12.2804H2.41601C3.02573 12.2804 3.52001 11.7861 3.52001 11.1764V8.9684C3.52001 8.35867 3.02573 7.86439 2.41601 7.86439Z" fill="#EDF6FF"/>
</svg>
