<svg width="18" height="13" viewBox="0 0 18 13" fill="none" xmlns="http://www.w3.org/2000/svg">
<path fill-rule="evenodd" clip-rule="evenodd" d="M8.95669 2.64747C11.403 2.64758 13.7558 3.58756 15.5288 5.27315C15.6623 5.40328 15.8757 5.40164 16.0072 5.26947L17.2834 3.98147C17.35 3.91443 17.3871 3.82363 17.3866 3.72915C17.386 3.63467 17.3478 3.5443 17.2805 3.47805C12.627 -0.981614 5.28563 -0.981614 0.632164 3.47805C0.564755 3.54425 0.526508 3.63459 0.525887 3.72907C0.525265 3.82355 0.56232 3.91438 0.628852 3.98147L1.90544 5.26947C2.03685 5.40184 2.25042 5.40348 2.38384 5.27315C4.15704 3.58745 6.51011 2.64746 8.95669 2.64747ZM8.95668 6.83791C10.3008 6.83783 11.5969 7.33742 12.5933 8.23962C12.728 8.36766 12.9403 8.36489 13.0717 8.23337L14.3464 6.94537C14.4135 6.87781 14.4508 6.78616 14.4498 6.69092C14.4489 6.59568 14.4097 6.50481 14.3413 6.43863C11.3072 3.61638 6.60869 3.61638 3.57468 6.43863C3.50615 6.50481 3.46705 6.59573 3.46615 6.691C3.46525 6.78626 3.50262 6.8779 3.5699 6.94537L4.84428 8.23337C4.97564 8.36489 5.18792 8.36766 5.32268 8.23962C6.31835 7.33802 7.61346 6.83847 8.95668 6.83791ZM11.5102 9.65732C11.5122 9.75282 11.4746 9.8449 11.4065 9.91181L9.2014 12.1371C9.13677 12.2025 9.04864 12.2393 8.95669 12.2393C8.86473 12.2393 8.7766 12.2025 8.71196 12.1371L6.50654 9.91181C6.43841 9.84485 6.40093 9.75274 6.40295 9.65724C6.40497 9.56174 6.44631 9.4713 6.51721 9.40728C7.92544 8.21619 9.98793 8.21619 11.3962 9.40728C11.467 9.47135 11.5083 9.56182 11.5102 9.65732Z" fill="#EDF6FF"/>
</svg>
